<?xml version="1.0" standalone="no"?>
<!DOCTYPE svg PUBLIC "-//W3C//DTD SVG 20010904//EN"
 "http://www.w3.org/TR/2001/REC-SVG-20010904/DTD/svg10.dtd">
<svg version="1.0" xmlns="http://www.w3.org/2000/svg"
 width="500.000000pt" height="500.000000pt" viewBox="0 0 500.000000 500.000000"
 preserveAspectRatio="xMidYMid meet">

<g transform="translate(0.000000,500.000000) scale(0.100000,-0.100000)"
fill="#000000" stroke="none">
<path d="M2277 3974 c-112 -17 -267 -71 -366 -126 -134 -76 -282 -243 -326
-367 -10 -29 -25 -42 -89 -75 -226 -117 -385 -342 -451 -636 -22 -101 -31
-377 -15 -478 50 -321 214 -566 463 -694 62 -32 68 -39 103 -107 126 -244 398
-416 731 -461 131 -18 385 -8 485 19 289 76 511 253 608 483 21 51 26 55 109
95 240 118 409 380 451 703 31 240 -11 524 -106 712 -85 169 -241 317 -396
373 -56 20 -56 21 -104 114 -120 235 -361 397 -664 446 -115 18 -313 18 -433
-1z m362 -329 c94 -23 178 -66 249 -130 34 -31 62 -60 62 -65 0 -5 -17 -14
-37 -20 -141 -45 -292 -181 -371 -335 -37 -71 -93 -217 -117 -303 -10 -34 -21
-62 -26 -62 -23 0 -193 67 -249 98 -88 48 -172 135 -201 209 -20 49 -24 76
-24 173 0 109 2 119 32 182 59 125 177 218 319 252 80 19 282 20 363 1z m759
-605 c122 -56 213 -176 248 -326 20 -86 19 -263 -1 -350 -21 -92 -67 -181
-128 -249 l-50 -57 -22 60 c-12 32 -34 80 -49 106 -40 69 -172 196 -251 242
-74 43 -237 110 -343 141 -72 21 -71 14 -21 143 63 165 155 267 282 312 41 15
74 18 157 15 95 -3 113 -7 178 -37z m-1834 -104 c22 -118 165 -294 306 -376
72 -42 247 -111 373 -146 80 -22 78 -11 16 -169 -66 -166 -157 -271 -277 -319
-59 -23 -192 -32 -261 -17 -183 39 -322 189 -366 396 -32 153 -13 370 44 492
30 62 136 187 151 178 4 -3 11 -20 14 -39z m1185 -675 c123 -49 171 -79 241
-151 73 -74 101 -143 108 -267 3 -74 0 -105 -17 -161 -35 -117 -122 -217 -236
-274 -110 -55 -149 -63 -315 -63 -181 0 -266 17 -357 72 -62 37 -135 102 -128
113 3 4 20 11 39 14 103 20 271 146 355 269 58 85 139 280 197 475 5 16 1 17
113 -27z"/>
</g>
</svg>
