<svg width="70" height="70px" viewBox="0 0 60 61" fill="none" xmlns="http://www.w3.org/2000/svg">
<path d="M30 0.125C13.4317 0.125 0 13.5567 0 30.125C0 46.6933 13.4317 60.125 30 60.125C46.5683 60.125 60 46.6933 60 30.125C60 13.5567 46.5683 0.125 30 0.125ZM20.1766 3.96086C18.6993 6.62776 16.951 10.7781 15.8048 16.6457H5.49517C8.70414 10.8547 13.8993 6.31535 20.1766 3.96086ZM4.45655 18.7188H15.4552C14.971 21.756 14.6462 25.1905 14.5966 29.0884H2.05862C2.19724 25.4036 3.0269 21.9009 4.45655 18.7188ZM2.04414 31.1616H14.6069C14.6545 35.0781 14.9959 38.4878 15.48 41.5312H4.53517C3.09931 38.3388 2.18069 34.8609 2.04414 31.1616ZM5.52414 43.6043H15.8214C16.9779 49.5298 18.751 53.674 20.2366 56.3119C13.9345 53.9657 8.73931 49.4098 5.52414 43.6043ZM29.0938 58.0747C26.9172 58.0064 24.8172 57.6629 22.7938 57.1229C21.2317 54.5657 19.2021 50.165 17.9193 43.6043H29.0938V58.0747ZM29.0938 41.5312H17.5531C17.069 38.4919 16.7338 35.0781 16.6821 31.1616H29.0917V41.5312H29.0938ZM29.0938 29.0884H16.6717C16.7234 25.1864 17.0503 21.7581 17.5345 18.7188H29.0938V29.0884ZM29.0938 16.6457H17.8759C19.1483 10.1326 21.1676 5.75052 22.7255 3.14569C24.7676 2.59535 26.8945 2.24569 29.0938 2.17328V16.6457ZM57.9372 29.0884H45.6621C45.6103 25.1905 45.2855 21.756 44.8014 18.7188H55.5021C56.9359 21.9071 57.7945 25.4016 57.9372 29.0884ZM54.4593 16.6457H44.4517C43.3159 10.8402 41.5924 6.71466 40.1255 4.04569C46.2641 6.43328 51.3021 10.9457 54.4593 16.6457ZM31.1648 2.17121C33.3724 2.26845 35.5138 2.6181 37.5621 3.19121C39.1159 5.80431 41.1207 10.1678 42.3848 16.6457H31.1648V2.17121ZM31.1648 18.7188H42.7241C43.2083 21.7581 43.5352 25.1864 43.5869 29.0884H31.1648V18.7188ZM31.1648 31.1616H43.5745C43.5269 35.0781 43.1876 38.4919 42.7035 41.5312H31.1648V31.1616ZM31.1648 58.0374V43.6022H42.3414C41.0648 50.1236 39.0497 54.5078 37.4938 57.0753C35.4703 57.6381 33.3455 57.9402 31.1648 58.0374ZM40.0697 56.2229C41.5469 53.5829 43.2972 49.4657 44.4393 43.6022H54.4428C51.2938 49.325 46.2352 53.8436 40.0697 56.2229ZM55.4379 41.5312H44.7786C45.2628 38.4878 45.6021 35.0781 45.6538 31.1616H57.9166C57.7779 34.8588 56.8655 38.3367 55.4379 41.5312Z" fill="#26F7B2"/>
</svg>
